0 Little hillside cottage
0 Name: bricksmith.ldr
0 Author: Bricksmith
0 !LDRAW_ORG Model
0 // Units: 20 LDU/stud, 8 LDU/plate, -Y up. Upright common parts only.
0 // Not physically validated. Standard LDraw parts library required.
1 288 40 -8 -20 1 0 0 0 1 0 0 0 1 3020.dat
1 288 120 -8 -20 1 0 0 0 1 0 0 0 1 3020.dat
1 288 200 -8 -20 1 0 0 0 1 0 0 0 1 3020.dat
1 288 280 -8 -20 1 0 0 0 1 0 0 0 1 3020.dat
1 288 40 -8 -60 1 0 0 0 1 0 0 0 1 3020.dat
1 288 120 -8 -60 1 0 0 0 1 0 0 0 1 3020.dat
1 288 200 -8 -60 1 0 0 0 1 0 0 0 1 3020.dat
1 288 280 -8 -60 1 0 0 0 1 0 0 0 1 3020.dat
1 288 40 -8 -100 1 0 0 0 1 0 0 0 1 3020.dat
1 288 120 -8 -100 1 0 0 0 1 0 0 0 1 3020.dat
1 288 200 -8 -100 1 0 0 0 1 0 0 0 1 3020.dat
1 288 280 -8 -100 1 0 0 0 1 0 0 0 1 3020.dat
1 288 40 -8 -140 1 0 0 0 1 0 0 0 1 3020.dat
1 288 120 -8 -140 1 0 0 0 1 0 0 0 1 3020.dat
1 288 200 -8 -140 1 0 0 0 1 0 0 0 1 3020.dat
1 288 280 -8 -140 1 0 0 0 1 0 0 0 1 3020.dat
1 288 40 -8 -180 1 0 0 0 1 0 0 0 1 3020.dat
1 288 120 -8 -180 1 0 0 0 1 0 0 0 1 3020.dat
1 288 200 -8 -180 1 0 0 0 1 0 0 0 1 3020.dat
1 288 280 -8 -180 1 0 0 0 1 0 0 0 1 3020.dat
1 288 40 -8 -220 1 0 0 0 1 0 0 0 1 3020.dat
1 288 120 -8 -220 1 0 0 0 1 0 0 0 1 3020.dat
1 288 200 -8 -220 1 0 0 0 1 0 0 0 1 3020.dat
1 288 280 -8 -220 1 0 0 0 1 0 0 0 1 3020.dat
1 288 40 -8 -260 1 0 0 0 1 0 0 0 1 3020.dat
1 288 120 -8 -260 1 0 0 0 1 0 0 0 1 3020.dat
1 288 200 -8 -260 1 0 0 0 1 0 0 0 1 3020.dat
1 288 280 -8 -260 1 0 0 0 1 0 0 0 1 3020.dat
1 288 40 -8 -300 1 0 0 0 1 0 0 0 1 3020.dat
1 288 120 -8 -300 1 0 0 0 1 0 0 0 1 3020.dat
1 288 200 -8 -300 1 0 0 0 1 0 0 0 1 3020.dat
1 288 280 -8 -300 1 0 0 0 1 0 0 0 1 3020.dat
0 STEP
1 288 10 -16 -10 1 0 0 0 1 0 0 0 1 3024.dat
1 288 60 -16 -10 1 0 0 0 1 0 0 0 1 3710.dat
1 288 140 -16 -10 1 0 0 0 1 0 0 0 1 3710.dat
1 288 220 -16 -10 1 0 0 0 1 0 0 0 1 3710.dat
1 288 290 -16 -10 1 0 0 0 1 0 0 0 1 3623.dat
1 288 10 -16 -60 0 0 1 0 1 0 -1 0 0 3710.dat
1 288 40 -16 -60 0 0 1 0 1 0 -1 0 0 3020.dat
1 288 80 -16 -60 0 0 1 0 1 0 -1 0 0 3020.dat
1 288 120 -16 -60 0 0 1 0 1 0 -1 0 0 3020.dat
1 288 160 -16 -60 0 0 1 0 1 0 -1 0 0 3020.dat
1 288 200 -16 -60 0 0 1 0 1 0 -1 0 0 3020.dat
1 288 240 -16 -60 0 0 1 0 1 0 -1 0 0 3020.dat
1 288 280 -16 -60 0 0 1 0 1 0 -1 0 0 3020.dat
1 288 310 -16 -60 0 0 1 0 1 0 -1 0 0 3710.dat
1 288 10 -16 -140 0 0 1 0 1 0 -1 0 0 3710.dat
1 288 40 -16 -140 0 0 1 0 1 0 -1 0 0 3020.dat
1 288 80 -16 -140 0 0 1 0 1 0 -1 0 0 3020.dat
1 288 120 -16 -140 0 0 1 0 1 0 -1 0 0 3020.dat
1 288 160 -16 -140 0 0 1 0 1 0 -1 0 0 3020.dat
1 288 200 -16 -140 0 0 1 0 1 0 -1 0 0 3020.dat
1 288 240 -16 -140 0 0 1 0 1 0 -1 0 0 3020.dat
1 288 280 -16 -140 0 0 1 0 1 0 -1 0 0 3020.dat
1 288 310 -16 -140 0 0 1 0 1 0 -1 0 0 3710.dat
1 288 10 -16 -220 0 0 1 0 1 0 -1 0 0 3710.dat
1 288 40 -16 -220 0 0 1 0 1 0 -1 0 0 3020.dat
1 288 80 -16 -220 0 0 1 0 1 0 -1 0 0 3020.dat
1 288 120 -16 -220 0 0 1 0 1 0 -1 0 0 3020.dat
1 288 160 -16 -220 0 0 1 0 1 0 -1 0 0 3020.dat
1 288 200 -16 -220 0 0 1 0 1 0 -1 0 0 3020.dat
1 288 240 -16 -220 0 0 1 0 1 0 -1 0 0 3020.dat
1 288 280 -16 -220 0 0 1 0 1 0 -1 0 0 3020.dat
1 288 310 -16 -220 0 0 1 0 1 0 -1 0 0 3710.dat
1 288 10 -16 -290 0 0 1 0 1 0 -1 0 0 3623.dat
1 288 60 -16 -280 1 0 0 0 1 0 0 0 1 3020.dat
1 288 140 -16 -280 1 0 0 0 1 0 0 0 1 3020.dat
1 288 220 -16 -280 1 0 0 0 1 0 0 0 1 3020.dat
1 288 280 -16 -290 0 0 1 0 1 0 -1 0 0 3021.dat
1 288 310 -16 -290 0 0 1 0 1 0 -1 0 0 3623.dat
1 288 60 -16 -310 1 0 0 0 1 0 0 0 1 3710.dat
1 288 140 -16 -310 1 0 0 0 1 0 0 0 1 3710.dat
1 288 220 -16 -310 1 0 0 0 1 0 0 0 1 3710.dat
0 STEP
1 70 100 -24 -100 1 0 0 0 1 0 0 0 1 3020.dat
1 70 180 -24 -100 1 0 0 0 1 0 0 0 1 3020.dat
1 70 240 -24 -120 0 0 1 0 1 0 -1 0 0 3020.dat
1 70 100 -24 -140 1 0 0 0 1 0 0 0 1 3020.dat
1 70 180 -24 -140 1 0 0 0 1 0 0 0 1 3020.dat
1 70 100 -24 -180 1 0 0 0 1 0 0 0 1 3020.dat
1 70 180 -24 -180 1 0 0 0 1 0 0 0 1 3020.dat
1 70 240 -24 -200 0 0 1 0 1 0 -1 0 0 3020.dat
1 70 100 -24 -220 1 0 0 0 1 0 0 0 1 3020.dat
1 70 180 -24 -220 1 0 0 0 1 0 0 0 1 3020.dat
0 STEP
1 19 80 -48 -120 0 0 1 0 1 0 -1 0 0 3001.dat
1 19 120 -48 -120 0 0 1 0 1 0 -1 0 0 3001.dat
1 70 160 -48 -90 1 0 0 0 1 0 0 0 1 3004.dat
1 19 200 -48 -120 0 0 1 0 1 0 -1 0 0 3001.dat
1 19 240 -48 -120 0 0 1 0 1 0 -1 0 0 3001.dat
1 19 160 -48 -140 0 0 1 0 1 0 -1 0 0 3001.dat
1 19 80 -48 -200 0 0 1 0 1 0 -1 0 0 3001.dat
1 19 120 -48 -200 0 0 1 0 1 0 -1 0 0 3001.dat
1 19 200 -48 -200 0 0 1 0 1 0 -1 0 0 3001.dat
1 19 240 -48 -200 0 0 1 0 1 0 -1 0 0 3001.dat
1 19 160 -48 -210 0 0 1 0 1 0 -1 0 0 3002.dat
0 STEP
1 19 70 -72 -100 0 0 1 0 1 0 -1 0 0 3004.dat
1 1 90 -72 -90 1 0 0 0 1 0 0 0 1 3005.dat
1 19 120 -72 -120 0 0 1 0 1 0 -1 0 0 3001.dat
1 70 160 -72 -90 1 0 0 0 1 0 0 0 1 3004.dat
1 19 200 -72 -120 0 0 1 0 1 0 -1 0 0 3001.dat
1 1 230 -72 -90 1 0 0 0 1 0 0 0 1 3005.dat
1 19 250 -72 -100 0 0 1 0 1 0 -1 0 0 3004.dat
1 19 90 -72 -140 0 0 1 0 1 0 -1 0 0 3010.dat
1 19 160 -72 -140 0 0 1 0 1 0 -1 0 0 3001.dat
1 19 230 -72 -140 0 0 1 0 1 0 -1 0 0 3010.dat
1 1 70 -72 -160 0 0 1 0 1 0 -1 0 0 3010.dat
1 1 250 -72 -160 0 0 1 0 1 0 -1 0 0 3010.dat
1 19 120 -72 -200 0 0 1 0 1 0 -1 0 0 3001.dat
1 19 200 -72 -200 0 0 1 0 1 0 -1 0 0 3001.dat
1 19 90 -72 -210 0 0 1 0 1 0 -1 0 0 3622.dat
1 19 160 -72 -210 0 0 1 0 1 0 -1 0 0 3002.dat
1 19 230 -72 -210 0 0 1 0 1 0 -1 0 0 3622.dat
1 19 70 -72 -220 0 0 1 0 1 0 -1 0 0 3004.dat
1 19 250 -72 -220 0 0 1 0 1 0 -1 0 0 3004.dat
0 STEP
1 19 70 -96 -100 0 0 1 0 1 0 -1 0 0 3004.dat
1 1 90 -96 -90 1 0 0 0 1 0 0 0 1 3005.dat
1 19 120 -96 -120 0 0 1 0 1 0 -1 0 0 3001.dat
1 70 160 -96 -90 1 0 0 0 1 0 0 0 1 3004.dat
1 19 200 -96 -120 0 0 1 0 1 0 -1 0 0 3001.dat
1 1 230 -96 -90 1 0 0 0 1 0 0 0 1 3005.dat
1 19 250 -96 -100 0 0 1 0 1 0 -1 0 0 3004.dat
1 19 90 -96 -140 0 0 1 0 1 0 -1 0 0 3010.dat
1 19 160 -96 -140 0 0 1 0 1 0 -1 0 0 3001.dat
1 19 230 -96 -140 0 0 1 0 1 0 -1 0 0 3010.dat
1 1 70 -96 -160 0 0 1 0 1 0 -1 0 0 3010.dat
1 1 250 -96 -160 0 0 1 0 1 0 -1 0 0 3010.dat
1 19 120 -96 -200 0 0 1 0 1 0 -1 0 0 3001.dat
1 19 200 -96 -200 0 0 1 0 1 0 -1 0 0 3001.dat
1 19 90 -96 -210 0 0 1 0 1 0 -1 0 0 3622.dat
1 19 160 -96 -210 0 0 1 0 1 0 -1 0 0 3002.dat
1 19 230 -96 -210 0 0 1 0 1 0 -1 0 0 3622.dat
1 19 70 -96 -220 0 0 1 0 1 0 -1 0 0 3004.dat
1 19 250 -96 -220 0 0 1 0 1 0 -1 0 0 3004.dat
0 STEP
1 19 100 -120 -100 1 0 0 0 1 0 0 0 1 3001.dat
1 70 160 -120 -90 1 0 0 0 1 0 0 0 1 3004.dat
1 19 220 -120 -100 1 0 0 0 1 0 0 0 1 3001.dat
1 19 160 -120 -140 0 0 1 0 1 0 -1 0 0 3001.dat
1 19 100 -120 -140 1 0 0 0 1 0 0 0 1 3001.dat
1 19 220 -120 -140 1 0 0 0 1 0 0 0 1 3001.dat
1 19 100 -120 -180 1 0 0 0 1 0 0 0 1 3001.dat
1 19 220 -120 -180 1 0 0 0 1 0 0 0 1 3001.dat
1 19 160 -120 -210 0 0 1 0 1 0 -1 0 0 3002.dat
1 19 100 -120 -220 1 0 0 0 1 0 0 0 1 3001.dat
1 19 220 -120 -220 1 0 0 0 1 0 0 0 1 3001.dat
0 STEP
1 19 80 -144 -120 0 0 1 0 1 0 -1 0 0 3001.dat
1 19 120 -144 -120 0 0 1 0 1 0 -1 0 0 3001.dat
1 19 160 -144 -120 0 0 1 0 1 0 -1 0 0 3001.dat
1 19 200 -144 -120 0 0 1 0 1 0 -1 0 0 3001.dat
1 19 240 -144 -120 0 0 1 0 1 0 -1 0 0 3001.dat
1 19 80 -144 -200 0 0 1 0 1 0 -1 0 0 3001.dat
1 19 120 -144 -200 0 0 1 0 1 0 -1 0 0 3001.dat
1 19 160 -144 -200 0 0 1 0 1 0 -1 0 0 3001.dat
1 19 200 -144 -200 0 0 1 0 1 0 -1 0 0 3001.dat
1 19 240 -144 -200 0 0 1 0 1 0 -1 0 0 3001.dat
0 STEP
1 19 100 -168 -100 1 0 0 0 1 0 0 0 1 3001.dat
1 19 180 -168 -100 1 0 0 0 1 0 0 0 1 3001.dat
1 19 240 -168 -120 0 0 1 0 1 0 -1 0 0 3001.dat
1 19 100 -168 -140 1 0 0 0 1 0 0 0 1 3001.dat
1 19 180 -168 -140 1 0 0 0 1 0 0 0 1 3001.dat
1 19 100 -168 -180 1 0 0 0 1 0 0 0 1 3001.dat
1 19 180 -168 -180 1 0 0 0 1 0 0 0 1 3001.dat
1 19 240 -168 -200 0 0 1 0 1 0 -1 0 0 3001.dat
1 19 100 -168 -220 1 0 0 0 1 0 0 0 1 3001.dat
1 19 180 -168 -220 1 0 0 0 1 0 0 0 1 3001.dat
0 STEP
1 19 80 -192 -120 0 0 1 0 1 0 -1 0 0 3001.dat
1 19 120 -192 -120 0 0 1 0 1 0 -1 0 0 3001.dat
1 19 160 -192 -120 0 0 1 0 1 0 -1 0 0 3001.dat
1 19 200 -192 -120 0 0 1 0 1 0 -1 0 0 3001.dat
1 19 240 -192 -120 0 0 1 0 1 0 -1 0 0 3001.dat
1 19 80 -192 -200 0 0 1 0 1 0 -1 0 0 3001.dat
1 19 120 -192 -200 0 0 1 0 1 0 -1 0 0 3001.dat
1 19 160 -192 -200 0 0 1 0 1 0 -1 0 0 3001.dat
1 19 200 -192 -200 0 0 1 0 1 0 -1 0 0 3001.dat
1 19 240 -192 -200 0 0 1 0 1 0 -1 0 0 3001.dat
0 STEP
1 19 100 -216 -100 1 0 0 0 1 0 0 0 1 3001.dat
1 19 180 -216 -100 1 0 0 0 1 0 0 0 1 3001.dat
1 19 240 -216 -120 0 0 1 0 1 0 -1 0 0 3001.dat
1 19 100 -216 -140 1 0 0 0 1 0 0 0 1 3001.dat
1 19 180 -216 -140 1 0 0 0 1 0 0 0 1 3001.dat
1 19 100 -216 -180 1 0 0 0 1 0 0 0 1 3001.dat
1 19 180 -216 -180 1 0 0 0 1 0 0 0 1 3001.dat
1 19 240 -216 -200 0 0 1 0 1 0 -1 0 0 3001.dat
1 19 100 -216 -220 1 0 0 0 1 0 0 0 1 3001.dat
1 19 180 -216 -220 1 0 0 0 1 0 0 0 1 3001.dat
0 STEP
1 4 80 -240 -120 0 0 1 0 1 0 -1 0 0 3001.dat
1 4 120 -240 -120 0 0 1 0 1 0 -1 0 0 3001.dat
1 4 160 -240 -120 0 0 1 0 1 0 -1 0 0 3001.dat
1 4 200 -240 -120 0 0 1 0 1 0 -1 0 0 3001.dat
1 4 240 -240 -120 0 0 1 0 1 0 -1 0 0 3001.dat
1 4 80 -240 -200 0 0 1 0 1 0 -1 0 0 3001.dat
1 4 120 -240 -200 0 0 1 0 1 0 -1 0 0 3001.dat
1 4 160 -240 -200 0 0 1 0 1 0 -1 0 0 3001.dat
1 4 200 -240 -200 0 0 1 0 1 0 -1 0 0 3001.dat
1 4 240 -240 -200 0 0 1 0 1 0 -1 0 0 3001.dat
0 STEP
1 4 120 -264 -100 1 0 0 0 1 0 0 0 1 3001.dat
1 4 200 -264 -100 1 0 0 0 1 0 0 0 1 3001.dat
1 4 120 -264 -140 1 0 0 0 1 0 0 0 1 3001.dat
1 4 200 -264 -140 1 0 0 0 1 0 0 0 1 3001.dat
1 4 120 -264 -180 1 0 0 0 1 0 0 0 1 3001.dat
1 4 200 -264 -180 1 0 0 0 1 0 0 0 1 3001.dat
1 4 120 -264 -220 1 0 0 0 1 0 0 0 1 3001.dat
1 4 200 -264 -220 1 0 0 0 1 0 0 0 1 3001.dat
0 STEP
1 4 120 -288 -120 0 0 1 0 1 0 -1 0 0 3001.dat
1 4 160 -288 -120 0 0 1 0 1 0 -1 0 0 3001.dat
1 4 200 -288 -120 0 0 1 0 1 0 -1 0 0 3001.dat
1 4 120 -288 -200 0 0 1 0 1 0 -1 0 0 3001.dat
1 4 160 -288 -200 0 0 1 0 1 0 -1 0 0 3001.dat
1 4 200 -288 -200 0 0 1 0 1 0 -1 0 0 3001.dat
0 STEP
1 4 160 -312 -100 1 0 0 0 1 0 0 0 1 3001.dat
1 4 160 -312 -140 1 0 0 0 1 0 0 0 1 3001.dat
1 4 160 -312 -180 1 0 0 0 1 0 0 0 1 3001.dat
1 4 160 -312 -220 1 0 0 0 1 0 0 0 1 3001.dat
0 STEP
1 4 160 -336 -120 0 0 1 0 1 0 -1 0 0 3001.dat
1 4 160 -336 -200 0 0 1 0 1 0 -1 0 0 3001.dat
0 STEP
