0 Image brightness relief
0 Name: bricksmith.ldr
0 Author: Bricksmith
0 !LDRAW_ORG Model
0 // Units: 20 LDU/stud, 8 LDU/plate, -Y up. Upright common parts only.
0 // Not physically validated. Standard LDraw parts library required.
1 71 40 -8 -20 1 0 0 0 1 0 0 0 1 3020.dat
1 71 120 -8 -20 1 0 0 0 1 0 0 0 1 3020.dat
1 71 200 -8 -20 1 0 0 0 1 0 0 0 1 3020.dat
1 71 280 -8 -20 1 0 0 0 1 0 0 0 1 3020.dat
1 71 360 -8 -20 1 0 0 0 1 0 0 0 1 3020.dat
1 71 440 -8 -20 1 0 0 0 1 0 0 0 1 3020.dat
1 71 40 -8 -60 1 0 0 0 1 0 0 0 1 3020.dat
1 71 120 -8 -60 1 0 0 0 1 0 0 0 1 3020.dat
1 71 200 -8 -60 1 0 0 0 1 0 0 0 1 3020.dat
1 71 280 -8 -60 1 0 0 0 1 0 0 0 1 3020.dat
1 71 360 -8 -60 1 0 0 0 1 0 0 0 1 3020.dat
1 71 440 -8 -60 1 0 0 0 1 0 0 0 1 3020.dat
1 71 40 -8 -100 1 0 0 0 1 0 0 0 1 3020.dat
1 71 120 -8 -100 1 0 0 0 1 0 0 0 1 3020.dat
1 71 200 -8 -100 1 0 0 0 1 0 0 0 1 3020.dat
1 71 280 -8 -100 1 0 0 0 1 0 0 0 1 3020.dat
1 71 360 -8 -100 1 0 0 0 1 0 0 0 1 3020.dat
1 71 440 -8 -100 1 0 0 0 1 0 0 0 1 3020.dat
1 71 40 -8 -140 1 0 0 0 1 0 0 0 1 3020.dat
1 71 120 -8 -140 1 0 0 0 1 0 0 0 1 3020.dat
1 71 200 -8 -140 1 0 0 0 1 0 0 0 1 3020.dat
1 71 280 -8 -140 1 0 0 0 1 0 0 0 1 3020.dat
1 71 360 -8 -140 1 0 0 0 1 0 0 0 1 3020.dat
1 71 440 -8 -140 1 0 0 0 1 0 0 0 1 3020.dat
1 71 40 -8 -180 1 0 0 0 1 0 0 0 1 3020.dat
1 71 120 -8 -180 1 0 0 0 1 0 0 0 1 3020.dat
1 71 200 -8 -180 1 0 0 0 1 0 0 0 1 3020.dat
1 71 280 -8 -180 1 0 0 0 1 0 0 0 1 3020.dat
1 71 360 -8 -180 1 0 0 0 1 0 0 0 1 3020.dat
1 71 440 -8 -180 1 0 0 0 1 0 0 0 1 3020.dat
1 71 40 -8 -220 1 0 0 0 1 0 0 0 1 3020.dat
1 71 120 -8 -220 1 0 0 0 1 0 0 0 1 3020.dat
1 71 200 -8 -220 1 0 0 0 1 0 0 0 1 3020.dat
1 71 280 -8 -220 1 0 0 0 1 0 0 0 1 3020.dat
1 71 360 -8 -220 1 0 0 0 1 0 0 0 1 3020.dat
1 71 440 -8 -220 1 0 0 0 1 0 0 0 1 3020.dat
1 71 40 -8 -260 1 0 0 0 1 0 0 0 1 3020.dat
1 71 120 -8 -260 1 0 0 0 1 0 0 0 1 3020.dat
1 71 200 -8 -260 1 0 0 0 1 0 0 0 1 3020.dat
1 71 280 -8 -260 1 0 0 0 1 0 0 0 1 3020.dat
1 71 360 -8 -260 1 0 0 0 1 0 0 0 1 3020.dat
1 71 440 -8 -260 1 0 0 0 1 0 0 0 1 3020.dat
1 71 40 -8 -300 1 0 0 0 1 0 0 0 1 3020.dat
1 71 120 -8 -300 1 0 0 0 1 0 0 0 1 3020.dat
1 71 200 -8 -300 1 0 0 0 1 0 0 0 1 3020.dat
1 71 280 -8 -300 1 0 0 0 1 0 0 0 1 3020.dat
1 71 360 -8 -300 1 0 0 0 1 0 0 0 1 3020.dat
1 71 440 -8 -300 1 0 0 0 1 0 0 0 1 3020.dat
0 STEP
1 71 10 -16 -10 1 0 0 0 1 0 0 0 1 3024.dat
1 71 60 -16 -10 1 0 0 0 1 0 0 0 1 3710.dat
1 71 140 -16 -10 1 0 0 0 1 0 0 0 1 3710.dat
1 71 220 -16 -10 1 0 0 0 1 0 0 0 1 3710.dat
1 71 300 -16 -10 1 0 0 0 1 0 0 0 1 3710.dat
1 71 380 -16 -10 1 0 0 0 1 0 0 0 1 3710.dat
1 71 450 -16 -10 1 0 0 0 1 0 0 0 1 3623.dat
1 71 10 -16 -60 0 0 1 0 1 0 -1 0 0 3710.dat
1 71 40 -16 -60 0 0 1 0 1 0 -1 0 0 3020.dat
1 71 80 -16 -60 0 0 1 0 1 0 -1 0 0 3020.dat
1 71 120 -16 -60 0 0 1 0 1 0 -1 0 0 3020.dat
1 71 160 -16 -60 0 0 1 0 1 0 -1 0 0 3020.dat
1 71 200 -16 -60 0 0 1 0 1 0 -1 0 0 3020.dat
1 71 240 -16 -60 0 0 1 0 1 0 -1 0 0 3020.dat
1 71 280 -16 -60 0 0 1 0 1 0 -1 0 0 3020.dat
1 71 320 -16 -60 0 0 1 0 1 0 -1 0 0 3020.dat
1 71 360 -16 -60 0 0 1 0 1 0 -1 0 0 3020.dat
1 71 400 -16 -60 0 0 1 0 1 0 -1 0 0 3020.dat
1 71 440 -16 -60 0 0 1 0 1 0 -1 0 0 3020.dat
1 71 470 -16 -60 0 0 1 0 1 0 -1 0 0 3710.dat
1 71 10 -16 -140 0 0 1 0 1 0 -1 0 0 3710.dat
1 71 40 -16 -140 0 0 1 0 1 0 -1 0 0 3020.dat
1 71 80 -16 -140 0 0 1 0 1 0 -1 0 0 3020.dat
1 71 120 -16 -140 0 0 1 0 1 0 -1 0 0 3020.dat
1 71 160 -16 -140 0 0 1 0 1 0 -1 0 0 3020.dat
1 71 200 -16 -140 0 0 1 0 1 0 -1 0 0 3020.dat
1 71 240 -16 -140 0 0 1 0 1 0 -1 0 0 3020.dat
1 71 280 -16 -140 0 0 1 0 1 0 -1 0 0 3020.dat
1 71 320 -16 -140 0 0 1 0 1 0 -1 0 0 3020.dat
1 71 360 -16 -140 0 0 1 0 1 0 -1 0 0 3020.dat
1 71 400 -16 -140 0 0 1 0 1 0 -1 0 0 3020.dat
1 71 440 -16 -140 0 0 1 0 1 0 -1 0 0 3020.dat
1 71 470 -16 -140 0 0 1 0 1 0 -1 0 0 3710.dat
1 71 10 -16 -220 0 0 1 0 1 0 -1 0 0 3710.dat
1 71 40 -16 -220 0 0 1 0 1 0 -1 0 0 3020.dat
1 71 80 -16 -220 0 0 1 0 1 0 -1 0 0 3020.dat
1 71 120 -16 -220 0 0 1 0 1 0 -1 0 0 3020.dat
1 71 160 -16 -220 0 0 1 0 1 0 -1 0 0 3020.dat
1 71 200 -16 -220 0 0 1 0 1 0 -1 0 0 3020.dat
1 71 240 -16 -220 0 0 1 0 1 0 -1 0 0 3020.dat
1 71 280 -16 -220 0 0 1 0 1 0 -1 0 0 3020.dat
1 71 320 -16 -220 0 0 1 0 1 0 -1 0 0 3020.dat
1 71 360 -16 -220 0 0 1 0 1 0 -1 0 0 3020.dat
1 71 400 -16 -220 0 0 1 0 1 0 -1 0 0 3020.dat
1 71 440 -16 -220 0 0 1 0 1 0 -1 0 0 3020.dat
1 71 470 -16 -220 0 0 1 0 1 0 -1 0 0 3710.dat
1 71 10 -16 -290 0 0 1 0 1 0 -1 0 0 3623.dat
1 71 60 -16 -280 1 0 0 0 1 0 0 0 1 3020.dat
1 71 140 -16 -280 1 0 0 0 1 0 0 0 1 3020.dat
1 71 220 -16 -280 1 0 0 0 1 0 0 0 1 3020.dat
1 71 300 -16 -280 1 0 0 0 1 0 0 0 1 3020.dat
1 71 380 -16 -280 1 0 0 0 1 0 0 0 1 3020.dat
1 71 440 -16 -290 0 0 1 0 1 0 -1 0 0 3021.dat
1 71 470 -16 -290 0 0 1 0 1 0 -1 0 0 3623.dat
1 71 60 -16 -310 1 0 0 0 1 0 0 0 1 3710.dat
1 71 140 -16 -310 1 0 0 0 1 0 0 0 1 3710.dat
1 71 220 -16 -310 1 0 0 0 1 0 0 0 1 3710.dat
1 71 300 -16 -310 1 0 0 0 1 0 0 0 1 3710.dat
1 71 380 -16 -310 1 0 0 0 1 0 0 0 1 3710.dat
0 STEP
1 1 40 -24 -20 1 0 0 0 1 0 0 0 1 3020.dat
1 1 120 -24 -20 1 0 0 0 1 0 0 0 1 3020.dat
1 1 200 -24 -20 1 0 0 0 1 0 0 0 1 3020.dat
1 1 280 -24 -20 1 0 0 0 1 0 0 0 1 3020.dat
1 1 360 -24 -20 1 0 0 0 1 0 0 0 1 3020.dat
1 1 440 -24 -20 1 0 0 0 1 0 0 0 1 3020.dat
1 1 40 -24 -60 1 0 0 0 1 0 0 0 1 3020.dat
1 1 120 -24 -60 1 0 0 0 1 0 0 0 1 3020.dat
1 1 200 -24 -60 1 0 0 0 1 0 0 0 1 3020.dat
1 1 280 -24 -60 1 0 0 0 1 0 0 0 1 3020.dat
1 1 330 -24 -50 1 0 0 0 1 0 0 0 1 3024.dat
1 14 360 -24 -80 0 0 1 0 1 0 -1 0 0 3020.dat
1 14 390 -24 -70 0 0 1 0 1 0 -1 0 0 3623.dat
1 1 440 -24 -50 1 0 0 0 1 0 0 0 1 3710.dat
1 14 330 -24 -90 0 0 1 0 1 0 -1 0 0 3623.dat
1 14 410 -24 -80 0 0 1 0 1 0 -1 0 0 3023.dat
1 1 450 -24 -80 1 0 0 0 1 0 0 0 1 3021.dat
1 1 40 -24 -100 1 0 0 0 1 0 0 0 1 3020.dat
1 1 120 -24 -90 1 0 0 0 1 0 0 0 1 3710.dat
1 1 200 -24 -90 1 0 0 0 1 0 0 0 1 3710.dat
1 1 280 -24 -100 1 0 0 0 1 0 0 0 1 3020.dat
1 1 100 -24 -110 1 0 0 0 1 0 0 0 1 3023.dat
1 288 140 -24 -140 0 0 1 0 1 0 -1 0 0 3020.dat
1 288 170 -24 -140 0 0 1 0 1 0 -1 0 0 3710.dat
1 1 210 -24 -110 1 0 0 0 1 0 0 0 1 3623.dat
1 288 420 -24 -120 1 0 0 0 1 0 0 0 1 3020.dat
1 1 470 -24 -110 1 0 0 0 1 0 0 0 1 3024.dat
1 1 30 -24 -140 1 0 0 0 1 0 0 0 1 3021.dat
1 1 70 -24 -130 1 0 0 0 1 0 0 0 1 3024.dat
1 288 100 -24 -160 0 0 1 0 1 0 -1 0 0 3020.dat
1 288 190 -24 -160 0 0 1 0 1 0 -1 0 0 3710.dat
1 1 240 -24 -130 1 0 0 0 1 0 0 0 1 3710.dat
1 1 310 -24 -140 1 0 0 0 1 0 0 0 1 3021.dat
1 14 350 -24 -130 1 0 0 0 1 0 0 0 1 3024.dat
1 288 370 -24 -160 0 0 1 0 1 0 -1 0 0 3710.dat
1 288 470 -24 -160 0 0 1 0 1 0 -1 0 0 3710.dat
1 288 70 -24 -180 0 0 1 0 1 0 -1 0 0 3710.dat
1 288 210 -24 -180 0 0 1 0 1 0 -1 0 0 3710.dat
1 1 250 -24 -150 1 0 0 0 1 0 0 0 1 3623.dat
1 288 350 -24 -180 0 0 1 0 1 0 -1 0 0 3710.dat
1 288 420 -24 -160 1 0 0 0 1 0 0 0 1 3020.dat
1 1 20 -24 -170 1 0 0 0 1 0 0 0 1 3023.dat
1 288 50 -24 -200 0 0 1 0 1 0 -1 0 0 3710.dat
1 288 240 -24 -200 0 0 1 0 1 0 -1 0 0 3020.dat
1 1 290 -24 -170 1 0 0 0 1 0 0 0 1 3623.dat
1 288 330 -24 -200 0 0 1 0 1 0 -1 0 0 3710.dat
1 288 20 -24 -220 0 0 1 0 1 0 -1 0 0 3020.dat
1 288 140 -24 -220 0 0 1 0 1 0 -1 0 0 3020.dat
1 288 170 -24 -220 0 0 1 0 1 0 -1 0 0 3710.dat
1 288 280 -24 -220 0 0 1 0 1 0 -1 0 0 3020.dat
1 288 310 -24 -220 0 0 1 0 1 0 -1 0 0 3710.dat
1 288 420 -24 -200 1 0 0 0 1 0 0 0 1 3020.dat
1 288 100 -24 -230 0 0 1 0 1 0 -1 0 0 3021.dat
1 288 190 -24 -230 0 0 1 0 1 0 -1 0 0 3623.dat
1 288 370 -24 -230 0 0 1 0 1 0 -1 0 0 3623.dat
1 288 470 -24 -230 0 0 1 0 1 0 -1 0 0 3623.dat
1 288 70 -24 -240 0 0 1 0 1 0 -1 0 0 3023.dat
1 288 210 -24 -240 0 0 1 0 1 0 -1 0 0 3023.dat
1 288 350 -24 -240 0 0 1 0 1 0 -1 0 0 3023.dat
1 288 420 -24 -240 1 0 0 0 1 0 0 0 1 3020.dat
1 288 50 -24 -250 1 0 0 0 1 0 0 0 1 3024.dat
1 288 240 -24 -250 1 0 0 0 1 0 0 0 1 3023.dat
1 288 330 -24 -250 1 0 0 0 1 0 0 0 1 3024.dat
1 2 40 -24 -280 1 0 0 0 1 0 0 0 1 3020.dat
1 2 120 -24 -280 1 0 0 0 1 0 0 0 1 3020.dat
1 2 200 -24 -280 1 0 0 0 1 0 0 0 1 3020.dat
1 2 280 -24 -280 1 0 0 0 1 0 0 0 1 3020.dat
1 2 360 -24 -280 1 0 0 0 1 0 0 0 1 3020.dat
1 2 440 -24 -280 1 0 0 0 1 0 0 0 1 3020.dat
1 19 40 -24 -310 1 0 0 0 1 0 0 0 1 3710.dat
1 19 120 -24 -310 1 0 0 0 1 0 0 0 1 3710.dat
1 19 200 -24 -310 1 0 0 0 1 0 0 0 1 3710.dat
1 19 280 -24 -310 1 0 0 0 1 0 0 0 1 3710.dat
1 19 360 -24 -310 1 0 0 0 1 0 0 0 1 3710.dat
1 19 440 -24 -310 1 0 0 0 1 0 0 0 1 3710.dat
0 STEP
1 1 10 -32 -10 1 0 0 0 1 0 0 0 1 3024.dat
1 1 60 -32 -10 1 0 0 0 1 0 0 0 1 3710.dat
1 1 140 -32 -10 1 0 0 0 1 0 0 0 1 3710.dat
1 1 220 -32 -10 1 0 0 0 1 0 0 0 1 3710.dat
1 1 300 -32 -10 1 0 0 0 1 0 0 0 1 3710.dat
1 1 380 -32 -10 1 0 0 0 1 0 0 0 1 3710.dat
1 1 450 -32 -10 1 0 0 0 1 0 0 0 1 3623.dat
1 1 10 -32 -60 0 0 1 0 1 0 -1 0 0 3710.dat
1 1 40 -32 -60 0 0 1 0 1 0 -1 0 0 3020.dat
1 1 80 -32 -60 0 0 1 0 1 0 -1 0 0 3020.dat
1 1 120 -32 -60 0 0 1 0 1 0 -1 0 0 3020.dat
1 1 160 -32 -60 0 0 1 0 1 0 -1 0 0 3020.dat
1 1 200 -32 -60 0 0 1 0 1 0 -1 0 0 3020.dat
1 1 240 -32 -60 0 0 1 0 1 0 -1 0 0 3020.dat
1 1 280 -32 -60 0 0 1 0 1 0 -1 0 0 3020.dat
1 1 310 -32 -60 0 0 1 0 1 0 -1 0 0 3710.dat
1 1 360 -32 -30 1 0 0 0 1 0 0 0 1 3710.dat
1 1 440 -32 -40 1 0 0 0 1 0 0 0 1 3020.dat
1 1 330 -32 -50 1 0 0 0 1 0 0 0 1 3024.dat
1 14 360 -32 -80 0 0 1 0 1 0 -1 0 0 3020.dat
1 14 390 -32 -70 0 0 1 0 1 0 -1 0 0 3623.dat
1 14 330 -32 -90 0 0 1 0 1 0 -1 0 0 3623.dat
1 14 410 -32 -80 0 0 1 0 1 0 -1 0 0 3023.dat
1 1 450 -32 -80 1 0 0 0 1 0 0 0 1 3021.dat
1 1 10 -32 -140 0 0 1 0 1 0 -1 0 0 3710.dat
1 1 40 -32 -130 0 0 1 0 1 0 -1 0 0 3021.dat
1 1 90 -32 -110 1 0 0 0 1 0 0 0 1 3623.dat
1 288 140 -32 -140 0 0 1 0 1 0 -1 0 0 3020.dat
1 288 170 -32 -140 0 0 1 0 1 0 -1 0 0 3710.dat
1 1 220 -32 -110 1 0 0 0 1 0 0 0 1 3710.dat
1 1 280 -32 -140 0 0 1 0 1 0 -1 0 0 3020.dat
1 1 310 -32 -140 0 0 1 0 1 0 -1 0 0 3710.dat
1 288 400 -32 -140 0 0 1 0 1 0 -1 0 0 3020.dat
1 288 440 -32 -140 0 0 1 0 1 0 -1 0 0 3020.dat
1 1 470 -32 -110 1 0 0 0 1 0 0 0 1 3024.dat
1 1 70 -32 -130 1 0 0 0 1 0 0 0 1 3024.dat
1 288 100 -32 -160 0 0 1 0 1 0 -1 0 0 3020.dat
1 288 190 -32 -160 0 0 1 0 1 0 -1 0 0 3710.dat
1 1 230 -32 -130 1 0 0 0 1 0 0 0 1 3623.dat
1 1 330 -32 -140 0 0 1 0 1 0 -1 0 0 3023.dat
1 14 350 -32 -130 1 0 0 0 1 0 0 0 1 3024.dat
1 288 370 -32 -160 0 0 1 0 1 0 -1 0 0 3710.dat
1 288 470 -32 -160 0 0 1 0 1 0 -1 0 0 3710.dat
1 288 70 -32 -180 0 0 1 0 1 0 -1 0 0 3710.dat
1 288 210 -32 -180 0 0 1 0 1 0 -1 0 0 3710.dat
1 1 240 -32 -150 1 0 0 0 1 0 0 0 1 3023.dat
1 288 350 -32 -180 0 0 1 0 1 0 -1 0 0 3710.dat
1 1 30 -32 -170 1 0 0 0 1 0 0 0 1 3024.dat
1 288 50 -32 -200 0 0 1 0 1 0 -1 0 0 3710.dat
1 288 240 -32 -200 0 0 1 0 1 0 -1 0 0 3020.dat
1 288 330 -32 -200 0 0 1 0 1 0 -1 0 0 3710.dat
1 288 10 -32 -220 0 0 1 0 1 0 -1 0 0 3710.dat
1 288 30 -32 -220 0 0 1 0 1 0 -1 0 0 3710.dat
1 288 140 -32 -220 0 0 1 0 1 0 -1 0 0 3020.dat
1 288 170 -32 -220 0 0 1 0 1 0 -1 0 0 3710.dat
1 288 280 -32 -220 0 0 1 0 1 0 -1 0 0 3020.dat
1 288 310 -32 -220 0 0 1 0 1 0 -1 0 0 3710.dat
1 288 400 -32 -220 0 0 1 0 1 0 -1 0 0 3020.dat
1 288 440 -32 -220 0 0 1 0 1 0 -1 0 0 3020.dat
1 288 100 -32 -230 0 0 1 0 1 0 -1 0 0 3021.dat
1 288 190 -32 -230 0 0 1 0 1 0 -1 0 0 3623.dat
1 288 370 -32 -230 0 0 1 0 1 0 -1 0 0 3623.dat
1 288 470 -32 -230 0 0 1 0 1 0 -1 0 0 3623.dat
1 288 70 -32 -240 0 0 1 0 1 0 -1 0 0 3023.dat
1 288 210 -32 -240 0 0 1 0 1 0 -1 0 0 3023.dat
1 288 350 -32 -240 0 0 1 0 1 0 -1 0 0 3023.dat
1 288 50 -32 -250 1 0 0 0 1 0 0 0 1 3024.dat
1 288 240 -32 -250 1 0 0 0 1 0 0 0 1 3023.dat
1 288 330 -32 -250 1 0 0 0 1 0 0 0 1 3024.dat
1 2 10 -32 -280 0 0 1 0 1 0 -1 0 0 3023.dat
1 2 60 -32 -280 1 0 0 0 1 0 0 0 1 3020.dat
1 2 140 -32 -280 1 0 0 0 1 0 0 0 1 3020.dat
1 2 220 -32 -280 1 0 0 0 1 0 0 0 1 3020.dat
1 2 300 -32 -280 1 0 0 0 1 0 0 0 1 3020.dat
1 2 380 -32 -280 1 0 0 0 1 0 0 0 1 3020.dat
1 2 450 -32 -280 1 0 0 0 1 0 0 0 1 3021.dat
1 19 10 -32 -310 1 0 0 0 1 0 0 0 1 3024.dat
1 19 60 -32 -310 1 0 0 0 1 0 0 0 1 3710.dat
1 19 140 -32 -310 1 0 0 0 1 0 0 0 1 3710.dat
1 19 220 -32 -310 1 0 0 0 1 0 0 0 1 3710.dat
1 19 300 -32 -310 1 0 0 0 1 0 0 0 1 3710.dat
1 19 380 -32 -310 1 0 0 0 1 0 0 0 1 3710.dat
1 19 450 -32 -310 1 0 0 0 1 0 0 0 1 3623.dat
0 STEP
1 1 40 -40 -20 1 0 0 0 1 0 0 0 1 3020.dat
1 1 120 -40 -20 1 0 0 0 1 0 0 0 1 3020.dat
1 1 200 -40 -20 1 0 0 0 1 0 0 0 1 3020.dat
1 1 280 -40 -20 1 0 0 0 1 0 0 0 1 3020.dat
1 1 360 -40 -20 1 0 0 0 1 0 0 0 1 3020.dat
1 1 440 -40 -20 1 0 0 0 1 0 0 0 1 3020.dat
1 1 40 -40 -60 1 0 0 0 1 0 0 0 1 3020.dat
1 1 120 -40 -60 1 0 0 0 1 0 0 0 1 3020.dat
1 1 200 -40 -60 1 0 0 0 1 0 0 0 1 3020.dat
1 1 280 -40 -60 1 0 0 0 1 0 0 0 1 3020.dat
1 1 330 -40 -50 1 0 0 0 1 0 0 0 1 3024.dat
1 14 360 -40 -80 0 0 1 0 1 0 -1 0 0 3020.dat
1 14 390 -40 -70 0 0 1 0 1 0 -1 0 0 3623.dat
1 1 440 -40 -50 1 0 0 0 1 0 0 0 1 3710.dat
1 14 330 -40 -90 0 0 1 0 1 0 -1 0 0 3623.dat
1 14 410 -40 -80 0 0 1 0 1 0 -1 0 0 3023.dat
1 1 450 -40 -80 1 0 0 0 1 0 0 0 1 3021.dat
1 1 40 -40 -100 1 0 0 0 1 0 0 0 1 3020.dat
1 1 120 -40 -90 1 0 0 0 1 0 0 0 1 3710.dat
1 1 200 -40 -90 1 0 0 0 1 0 0 0 1 3710.dat
1 1 280 -40 -100 1 0 0 0 1 0 0 0 1 3020.dat
1 1 100 -40 -110 1 0 0 0 1 0 0 0 1 3023.dat
1 1 210 -40 -110 1 0 0 0 1 0 0 0 1 3623.dat
1 1 470 -40 -110 1 0 0 0 1 0 0 0 1 3024.dat
1 1 30 -40 -140 1 0 0 0 1 0 0 0 1 3021.dat
1 1 70 -40 -130 1 0 0 0 1 0 0 0 1 3024.dat
1 1 240 -40 -130 1 0 0 0 1 0 0 0 1 3710.dat
1 1 310 -40 -140 1 0 0 0 1 0 0 0 1 3021.dat
1 14 350 -40 -130 1 0 0 0 1 0 0 0 1 3024.dat
1 1 250 -40 -150 1 0 0 0 1 0 0 0 1 3623.dat
1 1 20 -40 -170 1 0 0 0 1 0 0 0 1 3023.dat
1 1 290 -40 -170 1 0 0 0 1 0 0 0 1 3623.dat
1 2 40 -40 -280 1 0 0 0 1 0 0 0 1 3020.dat
1 2 120 -40 -280 1 0 0 0 1 0 0 0 1 3020.dat
1 2 200 -40 -280 1 0 0 0 1 0 0 0 1 3020.dat
1 2 280 -40 -280 1 0 0 0 1 0 0 0 1 3020.dat
1 2 360 -40 -280 1 0 0 0 1 0 0 0 1 3020.dat
1 2 440 -40 -280 1 0 0 0 1 0 0 0 1 3020.dat
1 19 40 -40 -310 1 0 0 0 1 0 0 0 1 3710.dat
1 19 120 -40 -310 1 0 0 0 1 0 0 0 1 3710.dat
1 19 200 -40 -310 1 0 0 0 1 0 0 0 1 3710.dat
1 19 280 -40 -310 1 0 0 0 1 0 0 0 1 3710.dat
1 19 360 -40 -310 1 0 0 0 1 0 0 0 1 3710.dat
1 19 440 -40 -310 1 0 0 0 1 0 0 0 1 3710.dat
0 STEP
1 14 360 -48 -80 0 0 1 0 1 0 -1 0 0 3020.dat
1 14 390 -48 -70 0 0 1 0 1 0 -1 0 0 3623.dat
1 14 330 -48 -90 0 0 1 0 1 0 -1 0 0 3623.dat
1 14 410 -48 -80 0 0 1 0 1 0 -1 0 0 3023.dat
1 14 350 -48 -130 1 0 0 0 1 0 0 0 1 3024.dat
1 19 10 -48 -310 1 0 0 0 1 0 0 0 1 3024.dat
1 19 60 -48 -310 1 0 0 0 1 0 0 0 1 3710.dat
1 19 140 -48 -310 1 0 0 0 1 0 0 0 1 3710.dat
1 19 220 -48 -310 1 0 0 0 1 0 0 0 1 3710.dat
1 19 300 -48 -310 1 0 0 0 1 0 0 0 1 3710.dat
1 19 380 -48 -310 1 0 0 0 1 0 0 0 1 3710.dat
1 19 450 -48 -310 1 0 0 0 1 0 0 0 1 3623.dat
0 STEP
1 14 360 -56 -80 0 0 1 0 1 0 -1 0 0 3020.dat
1 14 390 -56 -70 0 0 1 0 1 0 -1 0 0 3623.dat
1 14 330 -56 -90 0 0 1 0 1 0 -1 0 0 3623.dat
1 14 410 -56 -80 0 0 1 0 1 0 -1 0 0 3023.dat
1 14 350 -56 -130 1 0 0 0 1 0 0 0 1 3024.dat
1 19 40 -56 -310 1 0 0 0 1 0 0 0 1 3710.dat
1 19 120 -56 -310 1 0 0 0 1 0 0 0 1 3710.dat
1 19 200 -56 -310 1 0 0 0 1 0 0 0 1 3710.dat
1 19 280 -56 -310 1 0 0 0 1 0 0 0 1 3710.dat
1 19 360 -56 -310 1 0 0 0 1 0 0 0 1 3710.dat
1 19 440 -56 -310 1 0 0 0 1 0 0 0 1 3710.dat
0 STEP
