0 Image plate mosaic
0 Name: bricksmith.ldr
0 Author: Bricksmith
0 !LDRAW_ORG Model
0 // Units: 20 LDU/stud, 8 LDU/plate, -Y up. Upright common parts only.
0 // Not physically validated. Standard LDraw parts library required.
1 71 40 -8 -20 1 0 0 0 1 0 0 0 1 3020.dat
1 71 120 -8 -20 1 0 0 0 1 0 0 0 1 3020.dat
1 71 200 -8 -20 1 0 0 0 1 0 0 0 1 3020.dat
1 71 280 -8 -20 1 0 0 0 1 0 0 0 1 3020.dat
1 71 360 -8 -20 1 0 0 0 1 0 0 0 1 3020.dat
1 71 440 -8 -20 1 0 0 0 1 0 0 0 1 3020.dat
1 71 40 -8 -60 1 0 0 0 1 0 0 0 1 3020.dat
1 71 120 -8 -60 1 0 0 0 1 0 0 0 1 3020.dat
1 71 200 -8 -60 1 0 0 0 1 0 0 0 1 3020.dat
1 71 280 -8 -60 1 0 0 0 1 0 0 0 1 3020.dat
1 71 360 -8 -60 1 0 0 0 1 0 0 0 1 3020.dat
1 71 440 -8 -60 1 0 0 0 1 0 0 0 1 3020.dat
1 71 40 -8 -100 1 0 0 0 1 0 0 0 1 3020.dat
1 71 120 -8 -100 1 0 0 0 1 0 0 0 1 3020.dat
1 71 200 -8 -100 1 0 0 0 1 0 0 0 1 3020.dat
1 71 280 -8 -100 1 0 0 0 1 0 0 0 1 3020.dat
1 71 360 -8 -100 1 0 0 0 1 0 0 0 1 3020.dat
1 71 440 -8 -100 1 0 0 0 1 0 0 0 1 3020.dat
1 71 40 -8 -140 1 0 0 0 1 0 0 0 1 3020.dat
1 71 120 -8 -140 1 0 0 0 1 0 0 0 1 3020.dat
1 71 200 -8 -140 1 0 0 0 1 0 0 0 1 3020.dat
1 71 280 -8 -140 1 0 0 0 1 0 0 0 1 3020.dat
1 71 360 -8 -140 1 0 0 0 1 0 0 0 1 3020.dat
1 71 440 -8 -140 1 0 0 0 1 0 0 0 1 3020.dat
1 71 40 -8 -180 1 0 0 0 1 0 0 0 1 3020.dat
1 71 120 -8 -180 1 0 0 0 1 0 0 0 1 3020.dat
1 71 200 -8 -180 1 0 0 0 1 0 0 0 1 3020.dat
1 71 280 -8 -180 1 0 0 0 1 0 0 0 1 3020.dat
1 71 360 -8 -180 1 0 0 0 1 0 0 0 1 3020.dat
1 71 440 -8 -180 1 0 0 0 1 0 0 0 1 3020.dat
1 71 40 -8 -220 1 0 0 0 1 0 0 0 1 3020.dat
1 71 120 -8 -220 1 0 0 0 1 0 0 0 1 3020.dat
1 71 200 -8 -220 1 0 0 0 1 0 0 0 1 3020.dat
1 71 280 -8 -220 1 0 0 0 1 0 0 0 1 3020.dat
1 71 360 -8 -220 1 0 0 0 1 0 0 0 1 3020.dat
1 71 440 -8 -220 1 0 0 0 1 0 0 0 1 3020.dat
1 71 40 -8 -260 1 0 0 0 1 0 0 0 1 3020.dat
1 71 120 -8 -260 1 0 0 0 1 0 0 0 1 3020.dat
1 71 200 -8 -260 1 0 0 0 1 0 0 0 1 3020.dat
1 71 280 -8 -260 1 0 0 0 1 0 0 0 1 3020.dat
1 71 360 -8 -260 1 0 0 0 1 0 0 0 1 3020.dat
1 71 440 -8 -260 1 0 0 0 1 0 0 0 1 3020.dat
1 71 40 -8 -300 1 0 0 0 1 0 0 0 1 3020.dat
1 71 120 -8 -300 1 0 0 0 1 0 0 0 1 3020.dat
1 71 200 -8 -300 1 0 0 0 1 0 0 0 1 3020.dat
1 71 280 -8 -300 1 0 0 0 1 0 0 0 1 3020.dat
1 71 360 -8 -300 1 0 0 0 1 0 0 0 1 3020.dat
1 71 440 -8 -300 1 0 0 0 1 0 0 0 1 3020.dat
0 STEP
1 71 10 -16 -10 1 0 0 0 1 0 0 0 1 3024.dat
1 71 60 -16 -10 1 0 0 0 1 0 0 0 1 3710.dat
1 71 140 -16 -10 1 0 0 0 1 0 0 0 1 3710.dat
1 71 220 -16 -10 1 0 0 0 1 0 0 0 1 3710.dat
1 71 300 -16 -10 1 0 0 0 1 0 0 0 1 3710.dat
1 71 380 -16 -10 1 0 0 0 1 0 0 0 1 3710.dat
1 71 450 -16 -10 1 0 0 0 1 0 0 0 1 3623.dat
1 71 10 -16 -60 0 0 1 0 1 0 -1 0 0 3710.dat
1 71 40 -16 -60 0 0 1 0 1 0 -1 0 0 3020.dat
1 71 80 -16 -60 0 0 1 0 1 0 -1 0 0 3020.dat
1 71 120 -16 -60 0 0 1 0 1 0 -1 0 0 3020.dat
1 71 160 -16 -60 0 0 1 0 1 0 -1 0 0 3020.dat
1 71 200 -16 -60 0 0 1 0 1 0 -1 0 0 3020.dat
1 71 240 -16 -60 0 0 1 0 1 0 -1 0 0 3020.dat
1 71 280 -16 -60 0 0 1 0 1 0 -1 0 0 3020.dat
1 71 320 -16 -60 0 0 1 0 1 0 -1 0 0 3020.dat
1 71 360 -16 -60 0 0 1 0 1 0 -1 0 0 3020.dat
1 71 400 -16 -60 0 0 1 0 1 0 -1 0 0 3020.dat
1 71 440 -16 -60 0 0 1 0 1 0 -1 0 0 3020.dat
1 71 470 -16 -60 0 0 1 0 1 0 -1 0 0 3710.dat
1 71 10 -16 -140 0 0 1 0 1 0 -1 0 0 3710.dat
1 71 40 -16 -140 0 0 1 0 1 0 -1 0 0 3020.dat
1 71 80 -16 -140 0 0 1 0 1 0 -1 0 0 3020.dat
1 71 120 -16 -140 0 0 1 0 1 0 -1 0 0 3020.dat
1 71 160 -16 -140 0 0 1 0 1 0 -1 0 0 3020.dat
1 71 200 -16 -140 0 0 1 0 1 0 -1 0 0 3020.dat
1 71 240 -16 -140 0 0 1 0 1 0 -1 0 0 3020.dat
1 71 280 -16 -140 0 0 1 0 1 0 -1 0 0 3020.dat
1 71 320 -16 -140 0 0 1 0 1 0 -1 0 0 3020.dat
1 71 360 -16 -140 0 0 1 0 1 0 -1 0 0 3020.dat
1 71 400 -16 -140 0 0 1 0 1 0 -1 0 0 3020.dat
1 71 440 -16 -140 0 0 1 0 1 0 -1 0 0 3020.dat
1 71 470 -16 -140 0 0 1 0 1 0 -1 0 0 3710.dat
1 71 10 -16 -220 0 0 1 0 1 0 -1 0 0 3710.dat
1 71 40 -16 -220 0 0 1 0 1 0 -1 0 0 3020.dat
1 71 80 -16 -220 0 0 1 0 1 0 -1 0 0 3020.dat
1 71 120 -16 -220 0 0 1 0 1 0 -1 0 0 3020.dat
1 71 160 -16 -220 0 0 1 0 1 0 -1 0 0 3020.dat
1 71 200 -16 -220 0 0 1 0 1 0 -1 0 0 3020.dat
1 71 240 -16 -220 0 0 1 0 1 0 -1 0 0 3020.dat
1 71 280 -16 -220 0 0 1 0 1 0 -1 0 0 3020.dat
1 71 320 -16 -220 0 0 1 0 1 0 -1 0 0 3020.dat
1 71 360 -16 -220 0 0 1 0 1 0 -1 0 0 3020.dat
1 71 400 -16 -220 0 0 1 0 1 0 -1 0 0 3020.dat
1 71 440 -16 -220 0 0 1 0 1 0 -1 0 0 3020.dat
1 71 470 -16 -220 0 0 1 0 1 0 -1 0 0 3710.dat
1 71 10 -16 -290 0 0 1 0 1 0 -1 0 0 3623.dat
1 71 60 -16 -280 1 0 0 0 1 0 0 0 1 3020.dat
1 71 140 -16 -280 1 0 0 0 1 0 0 0 1 3020.dat
1 71 220 -16 -280 1 0 0 0 1 0 0 0 1 3020.dat
1 71 300 -16 -280 1 0 0 0 1 0 0 0 1 3020.dat
1 71 380 -16 -280 1 0 0 0 1 0 0 0 1 3020.dat
1 71 440 -16 -290 0 0 1 0 1 0 -1 0 0 3021.dat
1 71 470 -16 -290 0 0 1 0 1 0 -1 0 0 3623.dat
1 71 60 -16 -310 1 0 0 0 1 0 0 0 1 3710.dat
1 71 140 -16 -310 1 0 0 0 1 0 0 0 1 3710.dat
1 71 220 -16 -310 1 0 0 0 1 0 0 0 1 3710.dat
1 71 300 -16 -310 1 0 0 0 1 0 0 0 1 3710.dat
1 71 380 -16 -310 1 0 0 0 1 0 0 0 1 3710.dat
0 STEP
1 1 40 -24 -20 1 0 0 0 1 0 0 0 1 3020.dat
1 1 120 -24 -20 1 0 0 0 1 0 0 0 1 3020.dat
1 1 200 -24 -20 1 0 0 0 1 0 0 0 1 3020.dat
1 1 280 -24 -20 1 0 0 0 1 0 0 0 1 3020.dat
1 1 360 -24 -20 1 0 0 0 1 0 0 0 1 3020.dat
1 1 440 -24 -20 1 0 0 0 1 0 0 0 1 3020.dat
1 1 40 -24 -60 1 0 0 0 1 0 0 0 1 3020.dat
1 1 120 -24 -60 1 0 0 0 1 0 0 0 1 3020.dat
1 1 200 -24 -60 1 0 0 0 1 0 0 0 1 3020.dat
1 1 280 -24 -60 1 0 0 0 1 0 0 0 1 3020.dat
1 1 330 -24 -50 1 0 0 0 1 0 0 0 1 3024.dat
1 14 360 -24 -80 0 0 1 0 1 0 -1 0 0 3020.dat
1 14 390 -24 -70 0 0 1 0 1 0 -1 0 0 3623.dat
1 1 440 -24 -50 1 0 0 0 1 0 0 0 1 3710.dat
1 14 330 -24 -90 0 0 1 0 1 0 -1 0 0 3623.dat
1 14 410 -24 -80 0 0 1 0 1 0 -1 0 0 3023.dat
1 1 450 -24 -80 1 0 0 0 1 0 0 0 1 3021.dat
1 1 40 -24 -100 1 0 0 0 1 0 0 0 1 3020.dat
1 1 120 -24 -90 1 0 0 0 1 0 0 0 1 3710.dat
1 1 200 -24 -90 1 0 0 0 1 0 0 0 1 3710.dat
1 1 280 -24 -100 1 0 0 0 1 0 0 0 1 3020.dat
1 1 100 -24 -110 1 0 0 0 1 0 0 0 1 3023.dat
1 288 140 -24 -140 0 0 1 0 1 0 -1 0 0 3020.dat
1 288 170 -24 -140 0 0 1 0 1 0 -1 0 0 3710.dat
1 1 210 -24 -110 1 0 0 0 1 0 0 0 1 3623.dat
1 288 420 -24 -120 1 0 0 0 1 0 0 0 1 3020.dat
1 1 470 -24 -110 1 0 0 0 1 0 0 0 1 3024.dat
1 1 30 -24 -140 1 0 0 0 1 0 0 0 1 3021.dat
1 1 70 -24 -130 1 0 0 0 1 0 0 0 1 3024.dat
1 288 100 -24 -160 0 0 1 0 1 0 -1 0 0 3020.dat
1 288 190 -24 -160 0 0 1 0 1 0 -1 0 0 3710.dat
1 1 240 -24 -130 1 0 0 0 1 0 0 0 1 3710.dat
1 1 310 -24 -140 1 0 0 0 1 0 0 0 1 3021.dat
1 14 350 -24 -130 1 0 0 0 1 0 0 0 1 3024.dat
1 288 370 -24 -160 0 0 1 0 1 0 -1 0 0 3710.dat
1 288 470 -24 -160 0 0 1 0 1 0 -1 0 0 3710.dat
1 288 70 -24 -180 0 0 1 0 1 0 -1 0 0 3710.dat
1 288 210 -24 -180 0 0 1 0 1 0 -1 0 0 3710.dat
1 1 250 -24 -150 1 0 0 0 1 0 0 0 1 3623.dat
1 288 350 -24 -180 0 0 1 0 1 0 -1 0 0 3710.dat
1 288 420 -24 -160 1 0 0 0 1 0 0 0 1 3020.dat
1 1 20 -24 -170 1 0 0 0 1 0 0 0 1 3023.dat
1 288 50 -24 -200 0 0 1 0 1 0 -1 0 0 3710.dat
1 288 240 -24 -200 0 0 1 0 1 0 -1 0 0 3020.dat
1 1 290 -24 -170 1 0 0 0 1 0 0 0 1 3623.dat
1 288 330 -24 -200 0 0 1 0 1 0 -1 0 0 3710.dat
1 288 20 -24 -220 0 0 1 0 1 0 -1 0 0 3020.dat
1 288 140 -24 -220 0 0 1 0 1 0 -1 0 0 3020.dat
1 288 170 -24 -220 0 0 1 0 1 0 -1 0 0 3710.dat
1 288 280 -24 -220 0 0 1 0 1 0 -1 0 0 3020.dat
1 288 310 -24 -220 0 0 1 0 1 0 -1 0 0 3710.dat
1 288 420 -24 -200 1 0 0 0 1 0 0 0 1 3020.dat
1 288 100 -24 -230 0 0 1 0 1 0 -1 0 0 3021.dat
1 288 190 -24 -230 0 0 1 0 1 0 -1 0 0 3623.dat
1 288 370 -24 -230 0 0 1 0 1 0 -1 0 0 3623.dat
1 288 470 -24 -230 0 0 1 0 1 0 -1 0 0 3623.dat
1 288 70 -24 -240 0 0 1 0 1 0 -1 0 0 3023.dat
1 288 210 -24 -240 0 0 1 0 1 0 -1 0 0 3023.dat
1 288 350 -24 -240 0 0 1 0 1 0 -1 0 0 3023.dat
1 288 420 -24 -240 1 0 0 0 1 0 0 0 1 3020.dat
1 288 50 -24 -250 1 0 0 0 1 0 0 0 1 3024.dat
1 288 240 -24 -250 1 0 0 0 1 0 0 0 1 3023.dat
1 288 330 -24 -250 1 0 0 0 1 0 0 0 1 3024.dat
1 2 40 -24 -280 1 0 0 0 1 0 0 0 1 3020.dat
1 2 120 -24 -280 1 0 0 0 1 0 0 0 1 3020.dat
1 2 200 -24 -280 1 0 0 0 1 0 0 0 1 3020.dat
1 2 280 -24 -280 1 0 0 0 1 0 0 0 1 3020.dat
1 2 360 -24 -280 1 0 0 0 1 0 0 0 1 3020.dat
1 2 440 -24 -280 1 0 0 0 1 0 0 0 1 3020.dat
1 19 40 -24 -310 1 0 0 0 1 0 0 0 1 3710.dat
1 19 120 -24 -310 1 0 0 0 1 0 0 0 1 3710.dat
1 19 200 -24 -310 1 0 0 0 1 0 0 0 1 3710.dat
1 19 280 -24 -310 1 0 0 0 1 0 0 0 1 3710.dat
1 19 360 -24 -310 1 0 0 0 1 0 0 0 1 3710.dat
1 19 440 -24 -310 1 0 0 0 1 0 0 0 1 3710.dat
0 STEP
