0 Stepped desert pyramid
0 Name: bricksmith.ldr
0 Author: Bricksmith
0 !LDRAW_ORG Model
0 // Units: 20 LDU/stud, 8 LDU/plate, -Y up. Upright common parts only.
0 // Not physically validated. Standard LDraw parts library required.
1 19 40 -8 -20 1 0 0 0 1 0 0 0 1 3020.dat
1 19 120 -8 -20 1 0 0 0 1 0 0 0 1 3020.dat
1 19 200 -8 -20 1 0 0 0 1 0 0 0 1 3020.dat
1 19 280 -8 -20 1 0 0 0 1 0 0 0 1 3020.dat
1 19 40 -8 -60 1 0 0 0 1 0 0 0 1 3020.dat
1 19 120 -8 -60 1 0 0 0 1 0 0 0 1 3020.dat
1 19 200 -8 -60 1 0 0 0 1 0 0 0 1 3020.dat
1 19 280 -8 -60 1 0 0 0 1 0 0 0 1 3020.dat
1 19 40 -8 -100 1 0 0 0 1 0 0 0 1 3020.dat
1 19 120 -8 -100 1 0 0 0 1 0 0 0 1 3020.dat
1 19 200 -8 -100 1 0 0 0 1 0 0 0 1 3020.dat
1 19 280 -8 -100 1 0 0 0 1 0 0 0 1 3020.dat
1 19 40 -8 -140 1 0 0 0 1 0 0 0 1 3020.dat
1 19 120 -8 -140 1 0 0 0 1 0 0 0 1 3020.dat
1 19 200 -8 -140 1 0 0 0 1 0 0 0 1 3020.dat
1 19 280 -8 -140 1 0 0 0 1 0 0 0 1 3020.dat
1 19 40 -8 -180 1 0 0 0 1 0 0 0 1 3020.dat
1 19 120 -8 -180 1 0 0 0 1 0 0 0 1 3020.dat
1 19 200 -8 -180 1 0 0 0 1 0 0 0 1 3020.dat
1 19 280 -8 -180 1 0 0 0 1 0 0 0 1 3020.dat
1 19 40 -8 -220 1 0 0 0 1 0 0 0 1 3020.dat
1 19 120 -8 -220 1 0 0 0 1 0 0 0 1 3020.dat
1 19 200 -8 -220 1 0 0 0 1 0 0 0 1 3020.dat
1 19 280 -8 -220 1 0 0 0 1 0 0 0 1 3020.dat
1 19 40 -8 -260 1 0 0 0 1 0 0 0 1 3020.dat
1 19 120 -8 -260 1 0 0 0 1 0 0 0 1 3020.dat
1 19 200 -8 -260 1 0 0 0 1 0 0 0 1 3020.dat
1 19 280 -8 -260 1 0 0 0 1 0 0 0 1 3020.dat
1 19 40 -8 -300 1 0 0 0 1 0 0 0 1 3020.dat
1 19 120 -8 -300 1 0 0 0 1 0 0 0 1 3020.dat
1 19 200 -8 -300 1 0 0 0 1 0 0 0 1 3020.dat
1 19 280 -8 -300 1 0 0 0 1 0 0 0 1 3020.dat
0 STEP
1 19 10 -16 -10 1 0 0 0 1 0 0 0 1 3024.dat
1 19 60 -16 -10 1 0 0 0 1 0 0 0 1 3710.dat
1 19 140 -16 -10 1 0 0 0 1 0 0 0 1 3710.dat
1 19 220 -16 -10 1 0 0 0 1 0 0 0 1 3710.dat
1 19 290 -16 -10 1 0 0 0 1 0 0 0 1 3623.dat
1 19 10 -16 -60 0 0 1 0 1 0 -1 0 0 3710.dat
1 19 40 -16 -60 0 0 1 0 1 0 -1 0 0 3020.dat
1 19 80 -16 -60 0 0 1 0 1 0 -1 0 0 3020.dat
1 19 120 -16 -60 0 0 1 0 1 0 -1 0 0 3020.dat
1 19 160 -16 -60 0 0 1 0 1 0 -1 0 0 3020.dat
1 19 200 -16 -60 0 0 1 0 1 0 -1 0 0 3020.dat
1 19 240 -16 -60 0 0 1 0 1 0 -1 0 0 3020.dat
1 19 280 -16 -60 0 0 1 0 1 0 -1 0 0 3020.dat
1 19 310 -16 -60 0 0 1 0 1 0 -1 0 0 3710.dat
1 19 10 -16 -140 0 0 1 0 1 0 -1 0 0 3710.dat
1 19 40 -16 -140 0 0 1 0 1 0 -1 0 0 3020.dat
1 19 80 -16 -140 0 0 1 0 1 0 -1 0 0 3020.dat
1 19 120 -16 -140 0 0 1 0 1 0 -1 0 0 3020.dat
1 19 160 -16 -140 0 0 1 0 1 0 -1 0 0 3020.dat
1 19 200 -16 -140 0 0 1 0 1 0 -1 0 0 3020.dat
1 19 240 -16 -140 0 0 1 0 1 0 -1 0 0 3020.dat
1 19 280 -16 -140 0 0 1 0 1 0 -1 0 0 3020.dat
1 19 310 -16 -140 0 0 1 0 1 0 -1 0 0 3710.dat
1 19 10 -16 -220 0 0 1 0 1 0 -1 0 0 3710.dat
1 19 40 -16 -220 0 0 1 0 1 0 -1 0 0 3020.dat
1 19 80 -16 -220 0 0 1 0 1 0 -1 0 0 3020.dat
1 19 120 -16 -220 0 0 1 0 1 0 -1 0 0 3020.dat
1 19 160 -16 -220 0 0 1 0 1 0 -1 0 0 3020.dat
1 19 200 -16 -220 0 0 1 0 1 0 -1 0 0 3020.dat
1 19 240 -16 -220 0 0 1 0 1 0 -1 0 0 3020.dat
1 19 280 -16 -220 0 0 1 0 1 0 -1 0 0 3020.dat
1 19 310 -16 -220 0 0 1 0 1 0 -1 0 0 3710.dat
1 19 10 -16 -290 0 0 1 0 1 0 -1 0 0 3623.dat
1 19 60 -16 -280 1 0 0 0 1 0 0 0 1 3020.dat
1 19 140 -16 -280 1 0 0 0 1 0 0 0 1 3020.dat
1 19 220 -16 -280 1 0 0 0 1 0 0 0 1 3020.dat
1 19 280 -16 -290 0 0 1 0 1 0 -1 0 0 3021.dat
1 19 310 -16 -290 0 0 1 0 1 0 -1 0 0 3623.dat
1 19 60 -16 -310 1 0 0 0 1 0 0 0 1 3710.dat
1 19 140 -16 -310 1 0 0 0 1 0 0 0 1 3710.dat
1 19 220 -16 -310 1 0 0 0 1 0 0 0 1 3710.dat
0 STEP
1 19 60 -40 -40 1 0 0 0 1 0 0 0 1 3001.dat
1 19 140 -40 -40 1 0 0 0 1 0 0 0 1 3001.dat
1 19 220 -40 -40 1 0 0 0 1 0 0 0 1 3001.dat
1 19 280 -40 -60 0 0 1 0 1 0 -1 0 0 3001.dat
1 19 60 -40 -80 1 0 0 0 1 0 0 0 1 3001.dat
1 19 140 -40 -80 1 0 0 0 1 0 0 0 1 3001.dat
1 19 220 -40 -80 1 0 0 0 1 0 0 0 1 3001.dat
1 19 60 -40 -120 1 0 0 0 1 0 0 0 1 3001.dat
1 19 140 -40 -120 1 0 0 0 1 0 0 0 1 3001.dat
1 19 220 -40 -120 1 0 0 0 1 0 0 0 1 3001.dat
1 19 280 -40 -140 0 0 1 0 1 0 -1 0 0 3001.dat
1 19 60 -40 -160 1 0 0 0 1 0 0 0 1 3001.dat
1 19 140 -40 -160 1 0 0 0 1 0 0 0 1 3001.dat
1 19 220 -40 -160 1 0 0 0 1 0 0 0 1 3001.dat
1 19 60 -40 -200 1 0 0 0 1 0 0 0 1 3001.dat
1 19 140 -40 -200 1 0 0 0 1 0 0 0 1 3001.dat
1 19 220 -40 -200 1 0 0 0 1 0 0 0 1 3001.dat
1 19 280 -40 -220 0 0 1 0 1 0 -1 0 0 3001.dat
1 19 60 -40 -240 1 0 0 0 1 0 0 0 1 3001.dat
1 19 140 -40 -240 1 0 0 0 1 0 0 0 1 3001.dat
1 19 220 -40 -240 1 0 0 0 1 0 0 0 1 3001.dat
1 19 60 -40 -280 1 0 0 0 1 0 0 0 1 3001.dat
1 19 140 -40 -280 1 0 0 0 1 0 0 0 1 3001.dat
1 19 220 -40 -280 1 0 0 0 1 0 0 0 1 3001.dat
1 19 280 -40 -280 1 0 0 0 1 0 0 0 1 3003.dat
0 STEP
1 19 40 -64 -60 0 0 1 0 1 0 -1 0 0 3001.dat
1 19 80 -64 -60 0 0 1 0 1 0 -1 0 0 3001.dat
1 19 120 -64 -60 0 0 1 0 1 0 -1 0 0 3001.dat
1 19 160 -64 -60 0 0 1 0 1 0 -1 0 0 3001.dat
1 19 200 -64 -60 0 0 1 0 1 0 -1 0 0 3001.dat
1 19 240 -64 -60 0 0 1 0 1 0 -1 0 0 3001.dat
1 19 280 -64 -60 0 0 1 0 1 0 -1 0 0 3001.dat
1 19 40 -64 -140 0 0 1 0 1 0 -1 0 0 3001.dat
1 19 80 -64 -140 0 0 1 0 1 0 -1 0 0 3001.dat
1 19 120 -64 -140 0 0 1 0 1 0 -1 0 0 3001.dat
1 19 160 -64 -140 0 0 1 0 1 0 -1 0 0 3001.dat
1 19 200 -64 -140 0 0 1 0 1 0 -1 0 0 3001.dat
1 19 240 -64 -140 0 0 1 0 1 0 -1 0 0 3001.dat
1 19 280 -64 -140 0 0 1 0 1 0 -1 0 0 3001.dat
1 19 40 -64 -220 0 0 1 0 1 0 -1 0 0 3001.dat
1 19 80 -64 -220 0 0 1 0 1 0 -1 0 0 3001.dat
1 19 120 -64 -220 0 0 1 0 1 0 -1 0 0 3001.dat
1 19 160 -64 -220 0 0 1 0 1 0 -1 0 0 3001.dat
1 19 200 -64 -220 0 0 1 0 1 0 -1 0 0 3001.dat
1 19 240 -64 -220 0 0 1 0 1 0 -1 0 0 3001.dat
1 19 280 -64 -220 0 0 1 0 1 0 -1 0 0 3001.dat
1 19 60 -64 -280 1 0 0 0 1 0 0 0 1 3001.dat
1 19 140 -64 -280 1 0 0 0 1 0 0 0 1 3001.dat
1 19 220 -64 -280 1 0 0 0 1 0 0 0 1 3001.dat
1 19 280 -64 -280 1 0 0 0 1 0 0 0 1 3003.dat
0 STEP
1 19 80 -88 -60 1 0 0 0 1 0 0 0 1 3001.dat
1 19 160 -88 -60 1 0 0 0 1 0 0 0 1 3001.dat
1 19 240 -88 -60 1 0 0 0 1 0 0 0 1 3001.dat
1 19 80 -88 -100 1 0 0 0 1 0 0 0 1 3001.dat
1 19 160 -88 -100 1 0 0 0 1 0 0 0 1 3001.dat
1 19 240 -88 -100 1 0 0 0 1 0 0 0 1 3001.dat
1 19 80 -88 -140 1 0 0 0 1 0 0 0 1 3001.dat
1 19 160 -88 -140 1 0 0 0 1 0 0 0 1 3001.dat
1 19 240 -88 -140 1 0 0 0 1 0 0 0 1 3001.dat
1 19 80 -88 -180 1 0 0 0 1 0 0 0 1 3001.dat
1 19 160 -88 -180 1 0 0 0 1 0 0 0 1 3001.dat
1 19 240 -88 -180 1 0 0 0 1 0 0 0 1 3001.dat
1 19 80 -88 -220 1 0 0 0 1 0 0 0 1 3001.dat
1 19 160 -88 -220 1 0 0 0 1 0 0 0 1 3001.dat
1 19 240 -88 -220 1 0 0 0 1 0 0 0 1 3001.dat
1 19 80 -88 -260 1 0 0 0 1 0 0 0 1 3001.dat
1 19 160 -88 -260 1 0 0 0 1 0 0 0 1 3001.dat
1 19 240 -88 -260 1 0 0 0 1 0 0 0 1 3001.dat
0 STEP
1 19 80 -112 -100 0 0 1 0 1 0 -1 0 0 3001.dat
1 19 120 -112 -100 0 0 1 0 1 0 -1 0 0 3001.dat
1 19 160 -112 -100 0 0 1 0 1 0 -1 0 0 3001.dat
1 19 200 -112 -100 0 0 1 0 1 0 -1 0 0 3001.dat
1 19 240 -112 -100 0 0 1 0 1 0 -1 0 0 3001.dat
1 19 80 -112 -180 0 0 1 0 1 0 -1 0 0 3001.dat
1 19 120 -112 -180 0 0 1 0 1 0 -1 0 0 3001.dat
1 19 160 -112 -180 0 0 1 0 1 0 -1 0 0 3001.dat
1 19 200 -112 -180 0 0 1 0 1 0 -1 0 0 3001.dat
1 19 240 -112 -180 0 0 1 0 1 0 -1 0 0 3001.dat
1 19 100 -112 -240 1 0 0 0 1 0 0 0 1 3001.dat
1 19 180 -112 -240 1 0 0 0 1 0 0 0 1 3001.dat
1 19 240 -112 -240 1 0 0 0 1 0 0 0 1 3003.dat
0 STEP
1 19 120 -136 -100 1 0 0 0 1 0 0 0 1 3001.dat
1 19 200 -136 -100 1 0 0 0 1 0 0 0 1 3001.dat
1 19 120 -136 -140 1 0 0 0 1 0 0 0 1 3001.dat
1 19 200 -136 -140 1 0 0 0 1 0 0 0 1 3001.dat
1 19 120 -136 -180 1 0 0 0 1 0 0 0 1 3001.dat
1 19 200 -136 -180 1 0 0 0 1 0 0 0 1 3001.dat
1 19 120 -136 -220 1 0 0 0 1 0 0 0 1 3001.dat
1 19 200 -136 -220 1 0 0 0 1 0 0 0 1 3001.dat
0 STEP
1 19 120 -160 -140 0 0 1 0 1 0 -1 0 0 3001.dat
1 19 160 -160 -140 0 0 1 0 1 0 -1 0 0 3001.dat
1 19 200 -160 -140 0 0 1 0 1 0 -1 0 0 3001.dat
1 19 140 -160 -200 1 0 0 0 1 0 0 0 1 3001.dat
1 19 200 -160 -200 1 0 0 0 1 0 0 0 1 3003.dat
0 STEP
1 19 160 -184 -140 1 0 0 0 1 0 0 0 1 3001.dat
1 19 160 -184 -180 1 0 0 0 1 0 0 0 1 3001.dat
0 STEP
1 19 160 -208 -160 1 0 0 0 1 0 0 0 1 3003.dat
0 STEP
