0 The watchtower
0 Name: bricksmith.ldr
0 Author: Bricksmith
0 !LDRAW_ORG Model
0 // Units: 20 LDU/stud, 8 LDU/plate, -Y up. Upright common parts only.
0 // Not physically validated. Standard LDraw parts library required.
1 288 40 -8 -20 1 0 0 0 1 0 0 0 1 3020.dat
1 288 120 -8 -20 1 0 0 0 1 0 0 0 1 3020.dat
1 288 200 -8 -20 1 0 0 0 1 0 0 0 1 3020.dat
1 288 280 -8 -20 1 0 0 0 1 0 0 0 1 3020.dat
1 288 40 -8 -60 1 0 0 0 1 0 0 0 1 3020.dat
1 288 120 -8 -60 1 0 0 0 1 0 0 0 1 3020.dat
1 288 200 -8 -60 1 0 0 0 1 0 0 0 1 3020.dat
1 288 280 -8 -60 1 0 0 0 1 0 0 0 1 3020.dat
1 288 40 -8 -100 1 0 0 0 1 0 0 0 1 3020.dat
1 288 120 -8 -100 1 0 0 0 1 0 0 0 1 3020.dat
1 288 200 -8 -100 1 0 0 0 1 0 0 0 1 3020.dat
1 288 280 -8 -100 1 0 0 0 1 0 0 0 1 3020.dat
1 288 40 -8 -140 1 0 0 0 1 0 0 0 1 3020.dat
1 288 120 -8 -140 1 0 0 0 1 0 0 0 1 3020.dat
1 288 200 -8 -140 1 0 0 0 1 0 0 0 1 3020.dat
1 288 280 -8 -140 1 0 0 0 1 0 0 0 1 3020.dat
1 288 40 -8 -180 1 0 0 0 1 0 0 0 1 3020.dat
1 288 120 -8 -180 1 0 0 0 1 0 0 0 1 3020.dat
1 288 200 -8 -180 1 0 0 0 1 0 0 0 1 3020.dat
1 288 280 -8 -180 1 0 0 0 1 0 0 0 1 3020.dat
1 288 40 -8 -220 1 0 0 0 1 0 0 0 1 3020.dat
1 288 120 -8 -220 1 0 0 0 1 0 0 0 1 3020.dat
1 288 200 -8 -220 1 0 0 0 1 0 0 0 1 3020.dat
1 288 280 -8 -220 1 0 0 0 1 0 0 0 1 3020.dat
1 288 40 -8 -260 1 0 0 0 1 0 0 0 1 3020.dat
1 288 120 -8 -260 1 0 0 0 1 0 0 0 1 3020.dat
1 288 200 -8 -260 1 0 0 0 1 0 0 0 1 3020.dat
1 288 280 -8 -260 1 0 0 0 1 0 0 0 1 3020.dat
1 288 40 -8 -300 1 0 0 0 1 0 0 0 1 3020.dat
1 288 120 -8 -300 1 0 0 0 1 0 0 0 1 3020.dat
1 288 200 -8 -300 1 0 0 0 1 0 0 0 1 3020.dat
1 288 280 -8 -300 1 0 0 0 1 0 0 0 1 3020.dat
0 STEP
1 288 10 -16 -10 1 0 0 0 1 0 0 0 1 3024.dat
1 288 60 -16 -10 1 0 0 0 1 0 0 0 1 3710.dat
1 288 140 -16 -10 1 0 0 0 1 0 0 0 1 3710.dat
1 288 220 -16 -10 1 0 0 0 1 0 0 0 1 3710.dat
1 288 290 -16 -10 1 0 0 0 1 0 0 0 1 3623.dat
1 288 10 -16 -60 0 0 1 0 1 0 -1 0 0 3710.dat
1 288 40 -16 -60 0 0 1 0 1 0 -1 0 0 3020.dat
1 288 80 -16 -60 0 0 1 0 1 0 -1 0 0 3020.dat
1 288 120 -16 -60 0 0 1 0 1 0 -1 0 0 3020.dat
1 288 160 -16 -60 0 0 1 0 1 0 -1 0 0 3020.dat
1 288 200 -16 -60 0 0 1 0 1 0 -1 0 0 3020.dat
1 288 240 -16 -60 0 0 1 0 1 0 -1 0 0 3020.dat
1 288 280 -16 -60 0 0 1 0 1 0 -1 0 0 3020.dat
1 288 310 -16 -60 0 0 1 0 1 0 -1 0 0 3710.dat
1 288 10 -16 -140 0 0 1 0 1 0 -1 0 0 3710.dat
1 288 40 -16 -140 0 0 1 0 1 0 -1 0 0 3020.dat
1 288 80 -16 -140 0 0 1 0 1 0 -1 0 0 3020.dat
1 288 120 -16 -140 0 0 1 0 1 0 -1 0 0 3020.dat
1 288 160 -16 -140 0 0 1 0 1 0 -1 0 0 3020.dat
1 288 200 -16 -140 0 0 1 0 1 0 -1 0 0 3020.dat
1 288 240 -16 -140 0 0 1 0 1 0 -1 0 0 3020.dat
1 288 280 -16 -140 0 0 1 0 1 0 -1 0 0 3020.dat
1 288 310 -16 -140 0 0 1 0 1 0 -1 0 0 3710.dat
1 288 10 -16 -220 0 0 1 0 1 0 -1 0 0 3710.dat
1 288 40 -16 -220 0 0 1 0 1 0 -1 0 0 3020.dat
1 288 80 -16 -220 0 0 1 0 1 0 -1 0 0 3020.dat
1 288 120 -16 -220 0 0 1 0 1 0 -1 0 0 3020.dat
1 288 160 -16 -220 0 0 1 0 1 0 -1 0 0 3020.dat
1 288 200 -16 -220 0 0 1 0 1 0 -1 0 0 3020.dat
1 288 240 -16 -220 0 0 1 0 1 0 -1 0 0 3020.dat
1 288 280 -16 -220 0 0 1 0 1 0 -1 0 0 3020.dat
1 288 310 -16 -220 0 0 1 0 1 0 -1 0 0 3710.dat
1 288 10 -16 -290 0 0 1 0 1 0 -1 0 0 3623.dat
1 288 60 -16 -280 1 0 0 0 1 0 0 0 1 3020.dat
1 288 140 -16 -280 1 0 0 0 1 0 0 0 1 3020.dat
1 288 220 -16 -280 1 0 0 0 1 0 0 0 1 3020.dat
1 288 280 -16 -290 0 0 1 0 1 0 -1 0 0 3021.dat
1 288 310 -16 -290 0 0 1 0 1 0 -1 0 0 3623.dat
1 288 60 -16 -310 1 0 0 0 1 0 0 0 1 3710.dat
1 288 140 -16 -310 1 0 0 0 1 0 0 0 1 3710.dat
1 288 220 -16 -310 1 0 0 0 1 0 0 0 1 3710.dat
0 STEP
1 71 120 -40 -100 1 0 0 0 1 0 0 0 1 3001.dat
1 71 200 -40 -100 1 0 0 0 1 0 0 0 1 3001.dat
1 71 120 -40 -140 1 0 0 0 1 0 0 0 1 3001.dat
1 71 200 -40 -140 1 0 0 0 1 0 0 0 1 3001.dat
1 71 120 -40 -180 1 0 0 0 1 0 0 0 1 3001.dat
1 71 200 -40 -180 1 0 0 0 1 0 0 0 1 3001.dat
1 71 120 -40 -220 1 0 0 0 1 0 0 0 1 3001.dat
1 71 200 -40 -220 1 0 0 0 1 0 0 0 1 3001.dat
0 STEP
1 71 100 -64 -120 0 0 1 0 1 0 -1 0 0 3001.dat
1 71 140 -64 -120 0 0 1 0 1 0 -1 0 0 3001.dat
1 71 180 -64 -120 0 0 1 0 1 0 -1 0 0 3001.dat
1 71 220 -64 -120 0 0 1 0 1 0 -1 0 0 3001.dat
1 71 100 -64 -200 0 0 1 0 1 0 -1 0 0 3001.dat
1 71 140 -64 -200 0 0 1 0 1 0 -1 0 0 3001.dat
1 71 180 -64 -200 0 0 1 0 1 0 -1 0 0 3001.dat
1 71 220 -64 -200 0 0 1 0 1 0 -1 0 0 3001.dat
0 STEP
1 71 120 -88 -100 1 0 0 0 1 0 0 0 1 3001.dat
1 0 170 -88 -90 1 0 0 0 1 0 0 0 1 3005.dat
1 71 200 -88 -120 0 0 1 0 1 0 -1 0 0 3001.dat
1 71 230 -88 -120 0 0 1 0 1 0 -1 0 0 3010.dat
1 71 170 -88 -140 0 0 1 0 1 0 -1 0 0 3010.dat
1 71 120 -88 -140 1 0 0 0 1 0 0 0 1 3001.dat
1 0 90 -88 -170 1 0 0 0 1 0 0 0 1 3005.dat
1 71 120 -88 -200 0 0 1 0 1 0 -1 0 0 3001.dat
1 71 150 -88 -200 0 0 1 0 1 0 -1 0 0 3010.dat
1 71 200 -88 -200 0 0 1 0 1 0 -1 0 0 3001.dat
1 0 230 -88 -170 1 0 0 0 1 0 0 0 1 3005.dat
1 71 90 -88 -210 0 0 1 0 1 0 -1 0 0 3622.dat
1 71 170 -88 -200 0 0 1 0 1 0 -1 0 0 3004.dat
1 71 230 -88 -210 0 0 1 0 1 0 -1 0 0 3622.dat
1 0 170 -88 -230 1 0 0 0 1 0 0 0 1 3005.dat
0 STEP
1 71 100 -112 -120 0 0 1 0 1 0 -1 0 0 3001.dat
1 71 140 -112 -120 0 0 1 0 1 0 -1 0 0 3001.dat
1 71 180 -112 -120 0 0 1 0 1 0 -1 0 0 3001.dat
1 71 220 -112 -120 0 0 1 0 1 0 -1 0 0 3001.dat
1 71 100 -112 -200 0 0 1 0 1 0 -1 0 0 3001.dat
1 71 140 -112 -200 0 0 1 0 1 0 -1 0 0 3001.dat
1 71 180 -112 -200 0 0 1 0 1 0 -1 0 0 3001.dat
1 71 220 -112 -200 0 0 1 0 1 0 -1 0 0 3001.dat
0 STEP
1 71 120 -136 -100 1 0 0 0 1 0 0 0 1 3001.dat
1 71 200 -136 -100 1 0 0 0 1 0 0 0 1 3001.dat
1 71 120 -136 -140 1 0 0 0 1 0 0 0 1 3001.dat
1 71 200 -136 -140 1 0 0 0 1 0 0 0 1 3001.dat
1 71 120 -136 -180 1 0 0 0 1 0 0 0 1 3001.dat
1 71 200 -136 -180 1 0 0 0 1 0 0 0 1 3001.dat
1 71 120 -136 -220 1 0 0 0 1 0 0 0 1 3001.dat
1 71 200 -136 -220 1 0 0 0 1 0 0 0 1 3001.dat
0 STEP
1 71 100 -160 -120 0 0 1 0 1 0 -1 0 0 3001.dat
1 71 140 -160 -120 0 0 1 0 1 0 -1 0 0 3001.dat
1 71 180 -160 -120 0 0 1 0 1 0 -1 0 0 3001.dat
1 71 220 -160 -120 0 0 1 0 1 0 -1 0 0 3001.dat
1 71 100 -160 -200 0 0 1 0 1 0 -1 0 0 3001.dat
1 71 140 -160 -200 0 0 1 0 1 0 -1 0 0 3001.dat
1 71 180 -160 -200 0 0 1 0 1 0 -1 0 0 3001.dat
1 71 220 -160 -200 0 0 1 0 1 0 -1 0 0 3001.dat
0 STEP
1 71 120 -184 -100 1 0 0 0 1 0 0 0 1 3001.dat
1 0 170 -184 -90 1 0 0 0 1 0 0 0 1 3005.dat
1 71 200 -184 -120 0 0 1 0 1 0 -1 0 0 3001.dat
1 71 230 -184 -120 0 0 1 0 1 0 -1 0 0 3010.dat
1 71 170 -184 -140 0 0 1 0 1 0 -1 0 0 3010.dat
1 71 120 -184 -140 1 0 0 0 1 0 0 0 1 3001.dat
1 0 90 -184 -170 1 0 0 0 1 0 0 0 1 3005.dat
1 71 120 -184 -200 0 0 1 0 1 0 -1 0 0 3001.dat
1 71 150 -184 -200 0 0 1 0 1 0 -1 0 0 3010.dat
1 71 200 -184 -200 0 0 1 0 1 0 -1 0 0 3001.dat
1 0 230 -184 -170 1 0 0 0 1 0 0 0 1 3005.dat
1 71 90 -184 -210 0 0 1 0 1 0 -1 0 0 3622.dat
1 71 170 -184 -200 0 0 1 0 1 0 -1 0 0 3004.dat
1 71 230 -184 -210 0 0 1 0 1 0 -1 0 0 3622.dat
1 0 170 -184 -230 1 0 0 0 1 0 0 0 1 3005.dat
0 STEP
1 71 100 -208 -120 0 0 1 0 1 0 -1 0 0 3001.dat
1 71 140 -208 -120 0 0 1 0 1 0 -1 0 0 3001.dat
1 71 180 -208 -120 0 0 1 0 1 0 -1 0 0 3001.dat
1 71 220 -208 -120 0 0 1 0 1 0 -1 0 0 3001.dat
1 71 100 -208 -200 0 0 1 0 1 0 -1 0 0 3001.dat
1 71 140 -208 -200 0 0 1 0 1 0 -1 0 0 3001.dat
1 71 180 -208 -200 0 0 1 0 1 0 -1 0 0 3001.dat
1 71 220 -208 -200 0 0 1 0 1 0 -1 0 0 3001.dat
0 STEP
1 71 90 -232 -90 1 0 0 0 1 0 0 0 1 3005.dat
1 71 130 -232 -90 1 0 0 0 1 0 0 0 1 3005.dat
1 71 170 -232 -90 1 0 0 0 1 0 0 0 1 3005.dat
1 71 210 -232 -90 1 0 0 0 1 0 0 0 1 3005.dat
1 71 230 -232 -110 1 0 0 0 1 0 0 0 1 3005.dat
1 71 90 -232 -130 1 0 0 0 1 0 0 0 1 3005.dat
1 71 230 -232 -150 1 0 0 0 1 0 0 0 1 3005.dat
1 71 90 -232 -170 1 0 0 0 1 0 0 0 1 3005.dat
1 71 230 -232 -190 1 0 0 0 1 0 0 0 1 3005.dat
1 71 90 -232 -210 1 0 0 0 1 0 0 0 1 3005.dat
1 71 110 -232 -230 1 0 0 0 1 0 0 0 1 3005.dat
1 71 150 -232 -230 1 0 0 0 1 0 0 0 1 3005.dat
1 71 190 -232 -230 1 0 0 0 1 0 0 0 1 3005.dat
1 71 230 -232 -230 1 0 0 0 1 0 0 0 1 3005.dat
0 STEP
